Coordinates
version=1
nRows=60
nColumns=12
inDegrees=yes

Units are S.I. units (second, meters, Newtons, ...)
Angles are in degrees

endheader
time	SC_y	SC_z	SC_x	AC_y	AC_z	AC_x	GH_y	GH_z	GH_yy	EL_x	PS_y
       0.0              -40.39        -0.0625          37.15          50.33        -0.3862          9.641           7.26         -5.335          141.5          45.32          37.83
   0.04449              -40.39       -0.05948          37.16          50.33        -0.3867          9.638          7.265         -5.329          141.5          45.32          37.85
   0.08897               -40.4       -0.05628          37.16          50.34        -0.3872          9.634           7.27         -5.321          141.4          45.32          37.86
    0.1335               -40.4       -0.05287          37.17          50.34        -0.3877           9.63          7.276         -5.314          141.4          45.32          37.88
    0.1779               -40.4       -0.04925          37.17          50.34        -0.3883          9.626          7.281         -5.306          141.4          45.32          37.89
    0.2224               -40.4       -0.04538          37.18          50.34        -0.3889          9.622          7.287         -5.297          141.4          45.33          37.91
    0.2669               -40.4       -0.04125          37.18          50.35        -0.3895          9.617          7.294         -5.288          141.3          45.33          37.93
    0.3114               -40.4       -0.03684          37.19          50.35        -0.3902          9.612          7.301         -5.279          141.3          45.33          37.95
    0.3559               -40.4       -0.03211           37.2          50.36        -0.3909          9.607          7.309         -5.268          141.3          45.34          37.97
    0.4004               -40.4       -0.02704          37.21          50.36        -0.3917          9.601          7.317         -5.257          141.2          45.34          37.99
    0.4449              -40.41       -0.02159          37.22          50.36        -0.3925          9.595          7.325         -5.245          141.2          45.34          38.02
    0.4893              -40.41       -0.01573          37.23          50.37        -0.3934          9.588          7.334         -5.232          141.2          45.35          38.04
    0.5338              -40.41      -0.009407          37.24          50.38        -0.3944          9.581          7.345         -5.218          141.1          45.35          38.07
    0.5783              -40.41      -0.002581          37.25          50.38        -0.3954          9.573          7.355         -5.203          141.1          45.35           38.1
    0.6228              -40.41       0.004806          37.26          50.39        -0.3966          9.565          7.367         -5.187          141.0          45.36          38.14
    0.6673              -40.42        0.01282          37.27          50.39        -0.3978          9.556           7.38         -5.169          141.0          45.37          38.17
    0.7118              -40.42        0.02153          37.29           50.4        -0.3992          9.546          7.394          -5.15          140.9          45.37          38.21
    0.7562              -40.42        0.03101           37.3          50.41        -0.4006          9.535          7.409         -5.129          140.9          45.38          38.25
    0.8007              -40.42        0.04137          37.32          50.42        -0.4022          9.523          7.425         -5.107          140.8          45.38           38.3
    0.8452              -40.43        0.05271          37.34          50.43         -0.404          9.511          7.443         -5.082          140.7          45.39          38.35
    0.8897              -40.43        0.06516          37.36          50.44        -0.4059          9.497          7.463         -5.054          140.6           45.4          38.41
    0.9342              -40.44        0.07887          37.38          50.45         -0.408          9.481          7.485         -5.024          140.6          45.41          38.47
    0.9787              -40.44          0.094           37.4          50.46        -0.4103          9.464          7.509         -4.991          140.5          45.42          38.54
     1.023              -40.44         0.1108          37.43          50.48        -0.4129          9.445          7.535         -4.954          140.4          45.43          38.61
     1.068              -40.45         0.1294          37.46          50.49        -0.4158          9.424          7.565         -4.913          140.2          45.44           38.7
     1.112              -40.46         0.1502          37.49          50.51         -0.419            9.4          7.598         -4.867          140.1          45.46          38.79
     1.157              -40.46         0.1735          37.53          50.53        -0.4226          9.374          7.635         -4.816          140.0          45.47           38.9
     1.201              -40.47         0.1997          37.57          50.55        -0.4266          9.344          7.676         -4.758          139.8          45.49          39.01
     1.246              -40.48         0.2294          37.62          50.58        -0.4312          9.311          7.723         -4.693          139.6          45.51          39.15
      1.29              -40.49          0.263          37.68          50.61        -0.4364          9.272          7.777         -4.619          139.4          45.53           39.3
     1.335               -40.5         0.3014          37.74          50.64        -0.4423          9.229          7.837         -4.534          139.1          45.56          39.47
     1.379              -40.51         0.3455          37.81          50.68        -0.4491          9.179          7.907         -4.437          138.8          45.59          39.67
     1.424              -40.53         0.3963          37.89          50.72        -0.4569          9.121          7.988         -4.325          138.5          45.62           39.9
     1.468              -40.55         0.4554          37.99          50.77         -0.466          9.055          8.082         -4.195          138.1          45.66          40.17
     1.512              -40.57         0.5246           38.1          50.83        -0.4766          8.976          8.191         -4.043          137.7           45.7          40.48
     1.557              -40.59         0.6061          38.23           50.9        -0.4892          8.884          8.321         -3.864          137.2          45.76          40.84
     1.601              -40.62          0.703          38.39          50.98        -0.5041          8.774          8.474          -3.65          136.5          45.82          41.28
     1.646              -40.65         0.8191          38.58          51.08         -0.522          8.643          8.659         -3.395          135.8           45.9           41.8
      1.69               -40.7         0.9596           38.8           51.2        -0.5437          8.483          8.881         -3.085          134.9          45.99          42.44
     1.735              -40.75          1.131          39.08          51.35        -0.5701          8.289          9.154         -2.708          133.8          46.11          43.21
     1.779              -40.81          1.343          39.42          51.53        -0.6027          8.049           9.49         -2.241          132.4          46.25          44.16
     1.824              -40.89          1.607          39.85          51.75        -0.6434           7.75          9.909          -1.66          130.7          46.42          45.35
     1.868              -40.99           1.94          40.39          52.04        -0.6947          7.373          10.44        -0.9276          128.6          46.64          46.85
     1.913              -41.11          2.363          41.07           52.4        -0.7598          6.894          11.11       0.003489          125.9          46.92          48.76
     1.957              -41.27          2.904          41.95          52.86        -0.8432          6.281          11.97          1.195          122.4          47.28           51.2
     2.002              -41.48          3.599          43.07          53.45        -0.9502          5.494          13.07          2.725          117.9          47.74          54.33
     2.046              -41.74          4.487          44.51          54.21         -1.087          4.489          14.48          4.678          112.2          48.33          58.32
     2.091              -42.07          5.603          46.31          55.16         -1.259          3.225          16.25          7.134          105.1          49.07          63.35
     2.135              -42.48          6.963          48.51          56.32         -1.468          1.685           18.4          10.13          96.32          49.97          69.47
      2.18              -42.94          8.539          51.06          57.67         -1.711        -0.1006           20.9           13.6          86.18          51.01          76.57
     2.224              -43.45          10.25          53.82          59.12         -1.974         -2.034          23.61          17.35          75.21          52.15          84.26
     2.269              -43.95          11.95          56.58          60.58         -2.237         -3.967          26.32          21.11          64.24          53.28          91.95
     2.313              -44.42          13.53          59.12          61.93          -2.48         -5.752          28.82          24.58          54.11          54.32          99.05
     2.358              -44.82          14.89          61.32          63.09         -2.689         -7.292          30.97          27.57          45.37          55.22          105.2
     2.402              -45.16           16.0          63.13          64.04         -2.861         -8.556          32.74          30.03           38.2          55.96          110.2
     2.447              -45.42          16.89          64.56           64.8         -2.998         -9.561          34.15          31.98          32.49          56.55          114.2
     2.491              -45.62          17.59          65.69          65.39         -3.105         -10.35          35.25          33.51          28.03          57.01          117.3
     2.536              -45.78          18.13          66.56          65.85         -3.188         -10.96          36.11           34.7          24.55          57.37          119.8
      2.58              -45.91          18.55          67.25          66.21         -3.253         -11.44          36.78          35.64          21.83          57.65          121.7
     2.625              -46.01          18.88          67.78           66.5         -3.305         -11.82          37.31          36.37          19.69          57.87          123.2
